<svg id="Layer_1" data-name="Layer 1" xmlns="http://www.w3.org/2000/svg" width="600" height="300" viewBox="0 0 600 300"><defs><style>.cls-1{fill:#fff;}.cls-2{fill:#020202;}.cls-3{fill:none;stroke:#020202;stroke-miterlimit:10;stroke-width:4px;}</style></defs><path d="M117.12,38c-2.35,0-4.73.1-7.12.31-20.34,1.76-19.41,194-.27,194H110c53.33-5,97-43.43,97-97C207,84.13,167.2,38,117.12,38Zm4.12,22c1.73-.15,3.47-.23,5.19-.23h0c17.43,0,33.92,7.63,46.45,21.5A74.83,74.83,0,0,1,192,130.8a66.16,66.16,0,0,1-20.8,48.68c-12.95,12.46-30.76,20.34-50.14,22.17H121c-3.49,0-7.93-15.52-9.4-49.59a469.22,469.22,0,0,1,1.25-61.55C115.5,62.6,119.94,60.06,121.24,60Z"/><path class="cls-1" d="M111.55,152.06c1.47,34.07,5.91,49.59,9.4,49.59h.11c19.38-1.83,37.19-9.71,50.14-22.17A66.16,66.16,0,0,0,192,130.8a74.83,74.83,0,0,0-19.12-49.58c-12.53-13.87-29-21.5-46.45-21.5h0c-1.72,0-3.46.08-5.19.23-1.3.11-5.74,2.65-8.44,30.56A469.22,469.22,0,0,0,111.55,152.06Z"/><path d="M277,153.49c0-16.29-16.56-29.5-37-29.5s-37,13.21-37,29.5l-6.25-2.2c0-19,19.36-34.48,43.25-34.48s43.25,15.43,43.25,34.48Z"/><path class="cls-2" d="M361.5,49a88,88,0,1,0,88,88A88,88,0,0,0,361.5,49ZM364,210.65a72.5,72.5,0,1,1,72.5-72.5A72.5,72.5,0,0,1,364,210.65Z"/><circle class="cls-1" cx="364" cy="138.15" r="72.5"/><rect class="cls-2" x="438" y="124.5" width="51" height="15" rx="7.5" transform="translate(-15.79 81.66) rotate(-9.9)"/><rect class="cls-2" x="54" y="120.5" width="51" height="15" rx="7.5" transform="translate(23.09 -11.72) rotate(9.86)"/><path class="cls-3" d="M373,85.5c26,0,47,22.84,47,51"/></svg>